<svg width="33" height="33" viewBox="0 0 33 33" fill="none" xmlns="http://www.w3.org/2000/svg">
    <path fill-rule="evenodd" clip-rule="evenodd" d="M0.5 6.93299C0.5 3.38015 3.38015 0.5 6.93299 0.5H10.3402C10.5537 0.5 10.7268 0.673085 10.7268 0.886597V5.06186C10.7268 5.27537 10.5537 5.44845 10.3402 5.44845H6.93299C6.1131 5.44845 5.44845 6.1131 5.44845 6.93299V26.067C5.44845 26.8869 6.1131 27.5515 6.93299 27.5515H10.3402C10.5537 27.5515 10.7268 27.7246 10.7268 27.9381V32.1134C10.7268 32.3269 10.5537 32.5 10.3402 32.5H6.93299C3.38015 32.5 0.5 29.6199 0.5 26.067V6.93299Z" fill="#FFFFFF"/>
    <path fill-rule="evenodd" clip-rule="evenodd" d="M32.4999 26.067C32.4999 29.6199 29.6197 32.5 26.0669 32.5L22.6597 32.5C22.4462 32.5 22.2731 32.3269 22.2731 32.1134L22.2731 27.9381C22.2731 27.7246 22.4462 27.5515 22.6597 27.5515L26.0669 27.5515C26.8868 27.5515 27.5514 26.8869 27.5514 26.067L27.5514 6.93299C27.5514 6.1131 26.8868 5.44845 26.0669 5.44845L22.6597 5.44845C22.4462 5.44845 22.2731 5.27537 22.2731 5.06186L22.2731 0.886598C22.2731 0.673085 22.4462 0.500001 22.6597 0.500001L26.0669 0.500001C29.6197 0.500002 32.4999 3.38015 32.4999 6.93299L32.4999 26.067Z" fill="#FFFFFF"/>
</svg>
